<?xml version="1.0" encoding="utf-8"?>
<!-- Generator: Adobe Illustrator 25.4.1, SVG Export Plug-In . SVG Version: 6.00 Build 0)  -->
<svg version="1.1" id="Calque_1" xmlns="http://www.w3.org/2000/svg" xmlns:xlink="http://www.w3.org/1999/xlink" x="0px" y="0px"
	 viewBox="0 0 1919.7 515.5" style="enable-background:new 0 0 1919.7 515.5;" xml:space="preserve">
<style type="text/css">
	.st0{fill:#7289DA;}
</style>
<g>
	<g>
		<rect x="495.4" y="388.9" class="st0" width="348.6" height="119.4"/>
		<path class="st0" d="M1199.5,336.2c60.8-19.1,98.4-71.5,98.4-164.3C1295.1,54.5,1215,7.1,1111.7,7.1H911.5v501.1h128.2V349h22.7
			l116,159.2h157.8L1199.5,336.2z M1114,239.9h-74.3V125.3h74.3C1193.9,125.3,1193.9,239.9,1114,239.9z"/>
		<rect x="1368.7" y="7.1" class="st0" width="126.7" height="501.1"/>
		<path class="st0" d="M1919.4,365.3c-4.2,97-106.2,150.1-198.1,150.1c-60.1,0-123.8-30.4-170.5-90.6l79.9-75
			c50.3,60.8,160.7,63.7,164.3,10c1.4-28.3-44.6-44.6-85.6-50.3c-80.8-12.7-154.3-63.7-154.3-159.2C1554.9,51.7,1644,0,1736.1,0
			c60.8,0,119.5,17,171.2,79.9l-82.8,63.7c-52.3-55.9-142.3-53.8-144.4,4.2c1.4,24,27.6,38.2,66.6,46.7
			C1835.9,211,1925.1,242,1919.4,365.3z"/>
		<polygon class="st0" points="623.4,126 623.4,203.9 826.6,203.9 826.6,313.6 623.4,313.6 495.4,197 495.4,7.1 844.3,7.1 
			844.3,126 		"/>
	</g>
	<g>
		<path class="st0" d="M7.9,126.6c16.2,1.1,29.6-4.8,43.1-10.8c10.9-4.8,21.7-10,32.9-13.9c26.9-9.6,54,4.7,65.4,26.9
			c5.5,10.7,8.5,22,10.1,33.7c0.1,1.2-0.8,3.2-1.7,3.6c-27.5,11.2-55.6,18.1-85.6,12.6c-10.4-1.9-19.8-6.6-28.4-12.8
			C29.6,155.4,19.1,141.6,7.9,126.6z"/>
		<g>
			<path class="st0" d="M189.4,195.8c-0.1-1.4-0.1-2.8-0.2-4.2c-1.8-25.4-2-50.9,2-76.2c3.2-20.6,9.2-40.2,22.2-57.1
				c5.2-6.7,5.6-7,0.8-14.2c-6.6-9.8-13.6-19.6-20.9-28.9c-3.1-4.1-7.7-6.8-13.9-8.2c-16.9,64.3-13.9,127,8.8,188.8
				C188.5,195.8,189,195.8,189.4,195.8z"/>
			<path class="st0" d="M423.5,222.6c-7.2-27.5-19.9-52-41.8-70.7c-31.3-26.8-67.2-31.3-106.4-22c-30.6,7.3-63.5,50.2-66.7,55.4
				c-3.1,4.4-18.6,27.2-24.7,44.4l0,0v0.1c-9.5-14.4-22.4-25.1-39.7-30.8c-39.2-13-84.4,0.1-112.6,33.4
				C5.3,263.3-3.6,299.8,0.7,339.2c6.5,59.5,35.2,106.7,84.6,140.3c39.6,27,83.2,35.9,130.1,22.9c1.8-0.5,4.1-0.2,6,0.1
				c16.3,3,32.6,3.5,49.1,0.8c32.6-5.3,60.4-20.6,84.1-43.2c36.2-34.7,57.8-77.4,68.9-125.6C431.9,297.2,433.2,259.8,423.5,222.6z"
				/>
		</g>
	</g>
</g>
</svg>
