<?xml version="1.0" encoding="utf-8"?>
<!-- Generator: Adobe Illustrator 25.4.1, SVG Export Plug-In . SVG Version: 6.00 Build 0)  -->
<svg version="1.1" id="Calque_1" xmlns="http://www.w3.org/2000/svg" xmlns:xlink="http://www.w3.org/1999/xlink" x="0px" y="0px"
	 viewBox="0 0 1940 640" style="enable-background:new 0 0 1940 640;" xml:space="preserve">
<style type="text/css">
	.st0{fill:#FFFFFF;}
</style>
<g>
	<g>
		<rect x="583.1" y="429.4" class="st0" width="290.5" height="99.5"/>
		<path class="st0" d="M1169.9,385.5c50.7-15.9,82-59.6,82-136.9c-2.4-97.9-69.1-137.4-155.2-137.4H929.9v417.6h106.8V396.1h18.9
			l96.7,132.7h131.5L1169.9,385.5z M1098.6,305.2h-61.9v-95.5h61.9C1165.2,209.7,1165.2,305.2,1098.6,305.2z"/>
		<rect x="1310.9" y="111.2" class="st0" width="105.6" height="417.6"/>
		<path class="st0" d="M1769.8,409.6c-3.5,80.8-88.5,125.1-165.1,125.1c-50.1,0-103.2-25.3-142.1-75.5l66.6-62.5
			c41.9,50.7,133.9,53.1,136.9,8.3c1.2-23.6-37.2-37.2-71.3-41.9c-67.3-10.6-128.6-53.1-128.6-132.7c-0.1-82,74.2-125.1,150.8-125.1
			c50.7,0,99.6,14.2,142.7,66.6l-69,53.1c-43.6-46.6-118.6-44.8-120.3,3.5c1.2,20,23,31.8,55.5,38.9
			C1700.2,281.1,1774.5,307,1769.8,409.6z"/>
		<polygon class="st0" points="689.8,210.3 689.8,275.2 859.1,275.2 859.1,366.5 689.8,366.5 583.1,269.4 583.1,111.2 873.9,111.2 
			873.9,210.3 		"/>
	</g>
	<g>
		<path class="st0" d="M176.9,210.8c13.5,0.9,24.7-4,35.9-9c9.1-4,18.1-8.3,27.4-11.6c22.4-8,45,3.9,54.5,22.4
			c4.6,8.9,7.1,18.3,8.4,28.1c0.1,1-0.7,2.7-1.4,3c-22.9,9.3-46.3,15.1-71.3,10.5c-8.7-1.6-16.5-5.5-23.7-10.7
			C195,234.8,186.2,223.3,176.9,210.8z"/>
		<g>
			<path class="st0" d="M328.1,268.5c-0.1-1.2-0.1-2.3-0.2-3.5c-1.5-21.2-1.7-42.4,1.7-63.5c2.7-17.2,7.7-33.5,18.5-47.6
				c4.3-5.6,4.7-5.8,0.7-11.8c-5.5-8.2-11.3-16.3-17.4-24.1c-2.6-3.4-6.4-5.7-11.6-6.8c-14.1,53.6-11.6,105.8,7.3,157.3
				C327.4,268.5,327.8,268.5,328.1,268.5z"/>
			<path class="st0" d="M523.2,290.8c-6-22.9-16.6-43.3-34.8-58.9c-26.1-22.3-56-26.1-88.7-18.3c-25.5,6.1-52.9,41.8-55.6,46.2
				c-2.6,3.7-15.5,22.7-20.6,37c0,0,0,0,0,0c0,0,0,0.1,0,0.1c-7.9-12-18.7-20.9-33.1-25.7c-32.7-10.8-70.3,0.1-93.8,27.8
				c-21.9,25.7-29.3,56.1-25.7,89c5.4,49.6,29.3,88.9,70.5,116.9c33,22.5,69.3,29.9,108.4,19.1c1.5-0.4,3.4-0.2,5,0.1
				c13.6,2.5,27.2,2.9,40.9,0.7c27.2-4.4,50.3-17.2,70.1-36C496,459.9,514,424.3,523.2,384C530.2,353,531.3,321.8,523.2,290.8z"/>
		</g>
	</g>
</g>
</svg>
