<?xml version="1.0" encoding="utf-8"?>
<!-- Generator: Adobe Illustrator 25.4.1, SVG Export Plug-In . SVG Version: 6.00 Build 0)  -->
<svg version="1.1" id="Calque_1" xmlns="http://www.w3.org/2000/svg" xmlns:xlink="http://www.w3.org/1999/xlink" x="0px" y="0px"
	 viewBox="0 0 1940 640" style="enable-background:new 0 0 1940 640;" xml:space="preserve">
<style type="text/css">
	.st0{fill:#7289DA;}
	.st1{fill:#FFFFFF;}
	.st2{fill:#3E82E5;}
</style>
<g>
	<g>
		<rect x="583.1" y="347.1" class="st0" width="290.5" height="99.5"/>
		<path class="st0" d="M1169.9,303.2c50.7-15.9,82-59.6,82-136.9c-2.4-97.9-69.1-137.4-155.2-137.4H929.9v417.6h106.8V313.8h18.9
			l96.7,132.7h131.5L1169.9,303.2z M1098.6,222.9h-61.9v-95.5h61.9C1165.2,127.4,1165.2,222.9,1098.6,222.9z"/>
		<rect x="1310.9" y="28.9" class="st0" width="105.6" height="417.6"/>
		<path class="st0" d="M1769.8,327.4c-3.5,80.8-88.5,125.1-165.1,125.1c-50.1,0-103.2-25.3-142.1-75.5l66.6-62.5
			c41.9,50.7,133.9,53.1,136.9,8.3c1.2-23.6-37.2-37.2-71.3-41.9c-67.3-10.6-128.6-53.1-128.6-132.7C1466,66.1,1540.3,23,1617,23
			c50.7,0,99.6,14.2,142.7,66.6l-69,53.1c-43.6-46.6-118.6-44.8-120.3,3.5c1.2,20,23,31.8,55.5,38.9
			C1700.2,198.8,1774.5,224.7,1769.8,327.4z"/>
		<polygon class="st0" points="689.8,128 689.8,192.9 859.1,192.9 859.1,284.3 689.8,284.3 583.1,187.2 583.1,28.9 873.9,28.9 
			873.9,128 		"/>
	</g>
	<g>
		<path class="st1" d="M948.8,540.4h-28.2v31.7l18.8,16.9v-30.8h10c6.4,0,9.5,3.1,9.5,8v23.5c0,4.9-3,8.2-9.5,8.2h-28.9v17.9h28.2
			c15.1,0.1,29.3-7.5,29.3-24.8v-25.3C978.1,548.2,963.9,540.4,948.8,540.4L948.8,540.4z"/>
		<path class="st1" d="M1096.6,591.1v-26c0-9.3,16.8-11.5,21.9-2.1l15.5-6.3c-6.1-13.4-17.2-17.3-26.5-17.3
			c-15.1,0-30.1,8.7-30.1,25.7v26c0,17.2,14.9,25.7,29.7,25.7c9.5,0,20.9-4.7,27.2-16.9l-16.6-7.6
			C1113.7,602.8,1096.6,600.2,1096.6,591.1L1096.6,591.1z"/>
		<path class="st1" d="M1045.2,568.7c-5.9-1.3-9.8-3.4-10-7.1c0.3-8.7,13.9-9.1,21.8-0.7l12.5-9.6c-7.8-9.5-16.6-12.1-25.7-12.1
			c-13.9,0-27.3,7.8-27.3,22.6c0,14.4,11,22.1,23.2,24c6.2,0.8,13.1,3.3,12.9,7.6c-0.5,8.1-17.2,7.6-24.7-1.5l-12.1,11.3
			c7.1,9.1,16.6,13.7,25.7,13.7c13.9,0,29.2-8,29.8-22.6C1072.1,575.9,1058.7,571.2,1045.2,568.7L1045.2,568.7z"/>
		<rect x="988.3" y="540.4" class="st1" width="19" height="75.4"/>
		<path class="st1" d="M1309.2,540.4H1281v31.7l18.8,16.9v-30.8h10c6.4,0,9.5,3.1,9.5,8v23.5c0,4.9-3,8.2-9.5,8.2h-28.9v17.9h28.3
			c15.1,0.1,29.3-7.5,29.3-24.8v-25.3C1338.5,548.2,1324.3,540.4,1309.2,540.4L1309.2,540.4z"/>
		<path class="st1" d="M1170.8,539.4c-15.6,0-31.2,8.5-31.2,25.9v25.8c0,17.2,15.6,25.9,31.3,25.9c15.6,0,31.2-8.7,31.2-25.9v-25.8
			C1202.1,548,1186.4,539.4,1170.8,539.4z M1183,591.1c0,5.4-6.1,8.2-12.1,8.2c-6.1,0-12.2-2.6-12.2-8.2v-25.8
			c0-5.5,5.9-8.5,11.9-8.5c6.2,0,12.5,2.6,12.5,8.5L1183,591.1L1183,591.1z"/>
		<path class="st1" d="M1255.7,590c9.1-2.9,14.8-10.8,14.8-24.7c-0.4-17.7-12.5-24.8-28-24.8h-30.1V616h19.3v-24h3.4l17.5,24h23.8
			L1255.7,590z M1242.7,575.5h-11.2v-17.2h11.2C1254.7,558.3,1254.7,575.5,1242.7,575.5z"/>
	</g>
	<g>
		<path class="st2" d="M937.1,489.2h-16.6v17.1l10.6,9.5v-18.1h6.2c6.6,0,6.6,8.3,0,8.3h-4.1v7.9h4.1c6.6,0,6.6,8.3,0,8.3h-16.8v8.5
			h16.6c8.5,0,15.2-3.4,15.4-11.9c0-3.9-1.1-6.8-3-8.8c1.9-2,3-4.9,3-8.8C952.3,492.7,945.6,489.2,937.1,489.2z"/>
		<polygon class="st2" points="993.8,489.2 993.8,497.8 1004.5,497.8 1004.5,530.7 1015.1,530.7 1015.1,497.8 1031.8,497.8 
			1031.8,530.7 1042.4,530.7 1042.4,497.8 1053.1,497.8 1053.1,489.2 		"/>
		<polygon class="st2" points="958,489.2 958,530.7 990,530.7 990,522.2 968.6,522.2 968.6,515.3 980,515.3 980,504.7 968.6,504.7 
			968.6,497.8 990,497.8 990,489.2 		"/>
		<polygon class="st2" points="1056.8,489.2 1056.8,530.7 1088.7,530.7 1088.7,522.2 1067.4,522.2 1067.4,515.3 1078.7,515.3 
			1078.7,504.7 1067.4,504.7 1067.4,497.8 1088.7,497.8 1088.7,489.2 		"/>
		<path class="st2" d="M1118.1,516.5c5-1.6,8.1-5.9,8.1-13.6c-0.2-9.7-6.8-13.7-15.4-13.7h-16.5v41.5h10.6v-13.1h1.9l9.6,13.1h13
			L1118.1,516.5z M1111,508.5h-6.1v-10.8h6.1C1117.6,497.8,1117.6,508.5,1111,508.5z"/>
	</g>
	<g>
		<path class="st1" d="M710.8,546h29v17.8h-29v26h-19.3v-75.3H744v18.1h-33.2V546z"/>
		<path class="st1" d="M751,539.2c0-17.3,15.5-25.8,31.2-25.8c15.6,0,31.3,8.6,31.3,25.8v25.7c0,17.2-15.5,25.8-31.2,25.8
			c-15.6,0-31.3-8.6-31.3-25.8V539.2z M770.1,564.9c0,5.5,6.2,8.2,12.2,8.2c6.1,0,12.1-2.8,12.1-8.2v-25.7c0-5.9-6.3-8.5-12.4-8.5
			c-6,0-11.9,3-11.9,8.5V564.9z"/>
		<path class="st1" d="M846.2,565.8h-3.4v23.9h-19.3v-75.3h30.1c15.5,0,27.5,7.1,28,24.8c0,13.9-5.6,21.8-14.8,24.7l20.5,25.8h-23.7
			L846.2,565.8z M854,549.4c12,0,12-17.2,0-17.2h-11.2v17.2H854z"/>
	</g>
	<g>
		<path class="st0" d="M176.9,128.5c13.5,0.9,24.7-4,35.9-9c9.1-4,18.1-8.3,27.4-11.6c22.4-8,45,3.9,54.5,22.4
			c4.6,8.9,7.1,18.3,8.4,28.1c0.1,1-0.7,2.7-1.4,3c-22.9,9.3-46.3,15.1-71.3,10.5c-8.7-1.6-16.5-5.5-23.7-10.7
			C195,152.5,186.2,141,176.9,128.5z"/>
		<g>
			<path class="st0" d="M328.1,186.2c-0.1-1.2-0.1-2.3-0.2-3.5c-1.5-21.2-1.7-42.4,1.7-63.5c2.7-17.2,7.7-33.5,18.5-47.6
				c4.3-5.6,4.7-5.8,0.7-11.8c-5.5-8.2-11.3-16.3-17.4-24.1c-2.6-3.4-6.4-5.7-11.6-6.8c-14.1,53.6-11.6,105.8,7.3,157.3
				C327.4,186.2,327.8,186.2,328.1,186.2z"/>
			<path class="st0" d="M523.2,208.5c-6-22.9-16.6-43.3-34.8-58.9c-26.1-22.3-56-26.1-88.7-18.3c-25.5,6.1-52.9,41.8-55.6,46.2
				c-2.6,3.7-15.5,22.7-20.6,37c0,0,0,0,0,0c0,0,0,0.1,0,0.1c-7.9-12-18.7-20.9-33.1-25.7c-32.7-10.8-70.3,0.1-93.8,27.8
				c-21.9,25.7-29.3,56.1-25.7,89c5.4,49.6,29.3,88.9,70.5,116.9c33,22.5,69.3,29.9,108.4,19.1c1.5-0.4,3.4-0.2,5,0.1
				c13.6,2.5,27.2,2.9,40.9,0.7c27.2-4.4,50.3-17.2,70.1-36C496,377.6,514,342,523.2,301.8C530.2,270.7,531.3,239.5,523.2,208.5z"/>
		</g>
	</g>
</g>
</svg>
