<?xml version="1.0" encoding="utf-8"?>
<!-- Generator: Adobe Illustrator 25.4.1, SVG Export Plug-In . SVG Version: 6.00 Build 0)  -->
<svg version="1.1" id="Calque_1" xmlns="http://www.w3.org/2000/svg" xmlns:xlink="http://www.w3.org/1999/xlink" x="0px" y="0px"
	 viewBox="0 0 1919.7 710.8" style="enable-background:new 0 0 1919.7 710.8;" xml:space="preserve">
<style type="text/css">
	.st0{fill:#7289DA;}
	.st1{fill:#FFFFFF;}
	.st2{fill:#3E82E5;}
</style>
<g>
	<g>
		<rect x="495.4" y="388.9" class="st0" width="348.6" height="119.4"/>
		<path class="st0" d="M1199.5,336.2c60.8-19.1,98.4-71.5,98.4-164.3C1295.1,54.5,1215,7.1,1111.7,7.1H911.5v501.1h128.2V349h22.7
			l116,159.2h157.8L1199.5,336.2z M1114,239.9h-74.3V125.3h74.3C1193.9,125.3,1193.9,239.9,1114,239.9z"/>
		<rect x="1368.7" y="7.1" class="st0" width="126.7" height="501.1"/>
		<path class="st0" d="M1919.4,365.3c-4.2,97-106.2,150.1-198.1,150.1c-60.1,0-123.8-30.4-170.5-90.6l79.9-75
			c50.3,60.8,160.7,63.7,164.3,10c1.4-28.3-44.6-44.6-85.6-50.3c-80.8-12.7-154.3-63.7-154.3-159.2C1554.9,51.7,1644,0,1736.1,0
			c60.8,0,119.5,17,171.2,79.9l-82.8,63.7c-52.3-55.9-142.3-53.8-144.4,4.2c1.4,24,27.6,38.2,66.6,46.7
			C1835.9,211,1925.1,242,1919.4,365.3z"/>
		<polygon class="st0" points="623.4,126 623.4,203.9 826.6,203.9 826.6,313.6 623.4,313.6 495.4,197 495.4,7.1 844.3,7.1 
			844.3,126 		"/>
	</g>
	<g>
		<path class="st1" d="M934.2,620.9h-33.8v38l22.6,20.3v-37h12c7.7,0,11.4,3.7,11.4,9.6V680c0,5.9-3.6,9.8-11.4,9.8h-34.7v21.5h33.8
			c18.1,0.1,35.2-9,35.2-29.8v-30.4C969.4,630.2,952.3,620.9,934.2,620.9L934.2,620.9z"/>
		<path class="st1" d="M1111.6,681.7v-31.2c0-11.2,20.2-13.8,26.3-2.5l18.6-7.6c-7.3-16.1-20.6-20.8-31.8-20.8
			c-18.1,0-36.1,10.4-36.1,30.8v31.2c0,20.6,17.9,30.8,35.6,30.8c11.4,0,25.1-5.6,32.6-20.3l-19.9-9.1
			C1132.1,695.8,1111.6,692.6,1111.6,681.7L1111.6,681.7z"/>
		<path class="st1" d="M1049.9,654.8c-7.1-1.6-11.8-4.1-12-8.5c0.4-10.4,16.7-10.9,26.2-0.8l15-11.5c-9.4-11.4-19.9-14.5-30.8-14.5
			c-16.7,0-32.8,9.4-32.8,27.1c0,17.3,13.2,26.5,27.8,28.8c7.4,1,15.7,4,15.5,9.1c-0.6,9.7-20.6,9.1-29.6-1.8l-14.5,13.6
			c8.5,10.9,19.9,16.4,30.8,16.4c16.7,0,35-9.6,35.8-27.1C1082.2,663.5,1066.1,657.8,1049.9,654.8L1049.9,654.8z"/>
		<rect x="981.6" y="620.9" class="st1" width="22.8" height="90.5"/>
		<path class="st1" d="M1366.7,620.9h-33.8v38l22.6,20.3v-37h12c7.7,0,11.4,3.7,11.4,9.6V680c0,5.9-3.6,9.8-11.4,9.8h-34.7v21.5h34
			c18.1,0.1,35.2-9,35.2-29.8v-30.4C1401.9,630.2,1384.8,620.9,1366.7,620.9L1366.7,620.9z"/>
		<path class="st1" d="M1200.6,619.7c-18.7,0-37.4,10.2-37.4,31.1v31c0,20.6,18.7,31.1,37.6,31.1c18.7,0,37.4-10.4,37.4-31.1v-31
			C1238.2,630,1219.3,619.7,1200.6,619.7z M1215.3,681.7c0,6.5-7.3,9.8-14.5,9.8c-7.3,0-14.6-3.1-14.6-9.8v-31
			c0-6.6,7.1-10.2,14.3-10.2c7.4,0,15,3.1,15,10.2L1215.3,681.7L1215.3,681.7z"/>
		<path class="st1" d="M1302.5,680.4c10.9-3.5,17.8-13,17.8-29.6c-0.5-21.2-15-29.8-33.6-29.8h-36.1v90.6h23.2v-28.8h4.1l21,28.8
			h28.6L1302.5,680.4z M1286.9,663h-13.4v-20.6h13.4C1301.3,642.4,1301.3,663,1286.9,663z"/>
	</g>
	<g>
		<path class="st2" d="M920.2,559.4h-19.9V580l12.7,11.4v-21.7h7.4c7.9,0,7.9,10,0,10h-4.9v9.5h4.9c7.9,0,7.9,10,0,10h-20.2v10.2
			h19.9c10.2,0,18.2-4.1,18.5-14.3c0-4.7-1.3-8.2-3.6-10.6c2.3-2.4,3.6-5.9,3.6-10.6C938.4,563.6,930.4,559.4,920.2,559.4z"/>
		<polygon class="st2" points="988.2,559.4 988.2,569.8 1001.1,569.8 1001.1,609.2 1013.8,609.2 1013.8,569.8 1033.8,569.8 
			1033.8,609.2 1046.5,609.2 1046.5,569.8 1059.4,569.8 1059.4,559.4 		"/>
		<polygon class="st2" points="945.3,559.4 945.3,609.2 983.7,609.2 983.7,599 958,599 958,590.8 971.7,590.8 971.7,578 958,578 
			958,569.8 983.7,569.8 983.7,559.4 		"/>
		<polygon class="st2" points="1063.8,559.4 1063.8,609.2 1102.1,609.2 1102.1,599 1076.5,599 1076.5,590.8 1090.1,590.8 
			1090.1,578 1076.5,578 1076.5,569.8 1102.1,569.8 1102.1,559.4 		"/>
		<path class="st2" d="M1137.4,592.2c6-1.9,9.7-7.1,9.7-16.3c-0.2-11.6-8.2-16.4-18.5-16.4h-19.8v49.8h12.7v-15.7h2.3l11.5,15.7
			h15.6L1137.4,592.2z M1128.9,582.6h-7.3v-13h7.3C1136.8,569.8,1136.8,582.6,1128.9,582.6z"/>
	</g>
	<g>
		<path class="st1" d="M648.6,627.6h34.8V649h-34.8v31.2h-23.2v-90.4h63v21.7h-39.8V627.6z"/>
		<path class="st1" d="M696.9,619.4c0-20.8,18.6-31,37.4-31c18.7,0,37.6,10.3,37.6,31v30.8c0,20.6-18.6,31-37.4,31
			c-18.7,0-37.6-10.3-37.6-31V619.4z M719.8,650.3c0,6.6,7.4,9.8,14.6,9.8c7.3,0,14.5-3.4,14.5-9.8v-30.8c0-7.1-7.6-10.2-14.9-10.2
			c-7.2,0-14.3,3.6-14.3,10.2L719.8,650.3L719.8,650.3z"/>
		<path class="st1" d="M811.1,651.4H807V680h-23.2v-90.4H820c18.6,0,33,8.5,33.6,29.8c0,16.7-6.7,26.2-17.8,29.6l24.6,31H832
			L811.1,651.4z M820.5,631.7c14.4,0,14.4-20.6,0-20.6H807v20.6H820.5z"/>
	</g>
	<g>
		<path class="st0" d="M7.9,126.6c16.2,1.1,29.6-4.8,43.1-10.8c10.9-4.8,21.7-10,32.9-13.9c26.9-9.6,54,4.7,65.4,26.9
			c5.5,10.7,8.5,22,10.1,33.7c0.1,1.2-0.8,3.2-1.7,3.6c-27.5,11.2-55.6,18.1-85.6,12.6c-10.4-1.9-19.8-6.6-28.4-12.8
			C29.6,155.4,19.1,141.6,7.9,126.6z"/>
		<g>
			<path class="st0" d="M189.4,195.8c-0.1-1.4-0.1-2.8-0.2-4.2c-1.8-25.4-2-50.9,2-76.2c3.2-20.6,9.2-40.2,22.2-57.1
				c5.2-6.7,5.6-7,0.8-14.2c-6.6-9.8-13.6-19.6-20.9-28.9c-3.1-4.1-7.7-6.8-13.9-8.2c-16.9,64.3-13.9,127,8.8,188.8
				C188.5,195.8,189,195.8,189.4,195.8z"/>
			<path class="st0" d="M423.5,222.6c-7.2-27.5-19.9-52-41.8-70.7c-31.3-26.8-67.2-31.3-106.4-22c-30.6,7.3-63.5,50.2-66.7,55.4
				c-3.1,4.4-18.6,27.2-24.7,44.4l0,0v0.1c-9.5-14.4-22.4-25.1-39.7-30.8c-39.2-13-84.4,0.1-112.6,33.4
				C5.3,263.3-3.6,299.8,0.7,339.2c6.5,59.5,35.2,106.7,84.6,140.3c39.6,27,83.2,35.9,130.1,22.9c1.8-0.5,4.1-0.2,6,0.1
				c16.3,3,32.6,3.5,49.1,0.8c32.6-5.3,60.4-20.6,84.1-43.2c36.2-34.7,57.8-77.4,68.9-125.6C431.9,297.2,433.2,259.8,423.5,222.6z"
				/>
		</g>
	</g>
</g>
</svg>
