<?xml version="1.0" encoding="utf-8"?>
<!-- Generator: Adobe Illustrator 25.2.1, SVG Export Plug-In . SVG Version: 6.00 Build 0)  -->
<svg version="1.1" id="Layer_1" xmlns="http://www.w3.org/2000/svg" xmlns:xlink="http://www.w3.org/1999/xlink" x="0px" y="0px"
	 viewBox="0 0 120.35 120.35" style="enable-background:new 0 0 120.35 120.35;" xml:space="preserve">
<style type="text/css">
	.st0{fill:#FFFFFF;}
</style>
<path class="st0" d="M105.52,27.99c0,0,14.83,26.65,14.83,59.53c0,0-8.7,14.88-31.45,15.57c0,0-3.67-4.42-6.75-8.29
	c13.53-3.76,18.63-12.16,18.63-12.16c-4.26,2.77-8.27,4.69-11.88,6.06c-5.14,2.12-10.15,3.54-14.98,4.43
	c-9.86,1.82-18.94,1.38-26.7-0.06c-5.86-1.08-10.96-2.73-15.12-4.39c-2.36-0.9-4.9-2.05-7.57-3.52c-0.34-0.18-0.66-0.36-0.96-0.52
	c-0.16-0.09-0.3-0.16-0.45-0.26c-1.84-1.05-2.84-1.74-2.84-1.74s4.95,8.16,18.05,12c-3.1,3.9-6.88,8.44-6.88,8.44
	C8.7,102.4,0,87.52,0,87.52c0-32.87,14.83-59.53,14.83-59.53c14.84-11.07,28.9-10.72,28.9-10.72l1.06,1.2
	C26.2,23.76,17.74,31.89,17.74,31.89s2.22-1.27,6.12-2.92c11.06-4.82,19.78-6.12,23.38-6.46c0.58-0.08,1.14-0.17,1.73-0.24
	c6.33-0.79,13.37-1.02,20.84-0.18c9.78,1.1,20.33,4,31.04,9.81c0,0-8.1-7.7-25.67-12.98l1.44-1.64
	C76.62,17.27,90.69,16.92,105.52,27.99z M78.95,77.88c5.83,0,10.55-5.06,10.55-11.31c0-6.24-4.72-11.3-10.55-11.3
	c-5.82,0-10.54,5.06-10.54,11.3C68.41,72.82,73.13,77.88,78.95,77.88z M40.96,77.88c5.82,0,10.54-5.06,10.54-11.31
	c0-6.24-4.72-11.3-10.54-11.3c-5.83,0-10.55,5.06-10.55,11.3C30.4,72.82,35.12,77.88,40.96,77.88z"/>
</svg>
