<svg id="Layer_1" data-name="Layer 1" xmlns="http://www.w3.org/2000/svg" viewBox="0 0 28.05 20"><defs><style>.cls-1{fill:#fff;}</style></defs><path class="cls-1" d="M24.59,2.5a31.62,31.62,0,0,1,3.46,13.87S26,19.84,20.72,20c0,0-.86-1-1.58-1.93a7.51,7.51,0,0,0,4.35-2.84,14.6,14.6,0,0,1-2.77,1.42,18,18,0,0,1-3.49,1,17.07,17.07,0,0,1-6.23,0,18.38,18.38,0,0,1-3.52-1,14.22,14.22,0,0,1-1.76-.82l-.23-.12-.1-.06a6.77,6.77,0,0,1-.66-.41A7.38,7.38,0,0,0,8.93,18c-.72.91-1.6,2-1.6,2C2,19.84,0,16.37,0,16.37A31.62,31.62,0,0,1,3.46,2.5,11.82,11.82,0,0,1,10.19,0l.25.28A15.89,15.89,0,0,0,4.13,3.41a13.75,13.75,0,0,1,1.43-.68A18.28,18.28,0,0,1,11,1.22l.4-.05a20.62,20.62,0,0,1,4.86,0A19.78,19.78,0,0,1,23.5,3.41a15.92,15.92,0,0,0-6-3L17.86,0A11.84,11.84,0,0,1,24.59,2.5ZM18.4,14.12a2.54,2.54,0,0,0,2.46-2.63,2.47,2.47,0,1,0-4.92,0A2.54,2.54,0,0,0,18.4,14.12Zm-8.85,0A2.54,2.54,0,0,0,12,11.49,2.55,2.55,0,0,0,9.55,8.86a2.55,2.55,0,0,0-2.46,2.63A2.53,2.53,0,0,0,9.55,14.12Z"/></svg>