<?xml version="1.0" encoding="utf-8"?>
<!-- Generator: Adobe Illustrator 25.2.1, SVG Export Plug-In . SVG Version: 6.00 Build 0)  -->
<svg version="1.1" id="Layer_1" xmlns="http://www.w3.org/2000/svg" xmlns:xlink="http://www.w3.org/1999/xlink" x="0px" y="0px"
	 viewBox="0 0 1920 878" style="enable-background:new 0 0 1920 878;" xml:space="preserve">
<style type="text/css">
	.st0{fill:#7289DA;}
</style>
<rect x="0" y="616" class="st0" width="470" height="161"/>
<path class="st0" d="M949.34,544.9c82.05-25.76,132.62-96.36,132.62-221.35c-3.82-158.38-111.63-222.31-250.93-222.31H561.02v675.5
	h172.69V562.08h30.53l156.47,214.67h212.76L949.34,544.9z M833.89,415.15H733.71V260.58h100.18
	C941.7,260.58,941.7,415.15,833.89,415.15z"/>
<rect x="1177.37" y="101.25" class="st0" width="170.79" height="675.5"/>
<path class="st0" d="M1919.65,584.02c-5.73,130.71-143.12,202.27-267.15,202.27c-81.1,0-166.97-41.03-229.94-122.12l107.81-101.13
	c67.74,82.05,216.58,85.87,221.35,13.36c1.91-38.17-60.11-60.11-115.45-67.74c-108.77-17.17-207.99-85.87-207.99-214.67
	c0-132.62,120.22-202.27,244.25-202.27c82.05,0,161.24,22.9,230.89,107.81l-111.63,85.87c-70.6-75.37-191.77-72.51-194.64,5.72
	c1.91,32.44,37.21,51.52,89.69,62.97C1807.07,376.03,1927.29,418.01,1919.65,584.02z"/>
<g>
	<polygon class="st0" points="172.69,261.54 172.69,366.49 446.52,366.49 446.52,514.37 172.69,514.37 0,357.22 0,101.25 
		470.37,101.25 470.37,261.54 	"/>
</g>
</svg>
