<?xml version="1.0" encoding="utf-8"?>
<!-- Generator: Adobe Illustrator 25.4.1, SVG Export Plug-In . SVG Version: 6.00 Build 0)  -->
<svg version="1.1" id="Layer_1" xmlns="http://www.w3.org/2000/svg" xmlns:xlink="http://www.w3.org/1999/xlink" x="0px" y="0px"
	 viewBox="0 0 2648.3 694.6" style="enable-background:new 0 0 2648.3 694.6;" xml:space="preserve">
<style type="text/css">
	.st0{fill:#7289DA;}
</style>
<rect x="728.3" y="524.3" class="st0" width="470" height="161"/>
<path class="st0" d="M1677.6,453.2c82-25.8,132.7-96.4,132.7-221.4c-3.9-158.4-111.7-222.3-251-222.3h-270V685H1462V470.4h30.5
	L1649,685h212.8L1677.6,453.2z M1562.2,323.4H1462V168.9h100.2C1670,168.9,1670,323.4,1562.2,323.4z"/>
<rect x="1905.7" y="9.5" class="st0" width="170.8" height="675.5"/>
<path class="st0" d="M2648,492.3c-5.7,130.7-143.1,202.3-267.1,202.3c-81.1,0-167-41-229.9-122.1l107.8-101.1
	c67.7,82,216.6,85.9,221.4,13.4c1.9-38.2-60.1-60.1-115.4-67.7c-108.8-17.2-208-85.9-208-214.7C2156.6,69.7,2276.8,0,2400.8,0
	c82,0,161.2,22.9,230.9,107.8l-111.6,85.9c-70.6-75.4-191.8-72.5-194.6,5.7c1.9,32.4,37.2,51.5,89.7,63
	C2535.4,284.3,2655.6,326.3,2648,492.3z"/>
<polygon class="st0" points="901,169.8 901,274.8 1174.8,274.8 1174.8,422.6 901,422.6 728.3,265.5 728.3,9.5 1198.7,9.5 
	1198.7,169.8 "/>
<path class="st0" d="M307.9,172.7c3.2-15,5.9-27.1,8.3-39.2c0.4-1.8-0.1-4.8-1.2-5.6c-12-8.1-21.5-20.8-39.1-17.7
	c-15.9,2.8-32.1,3.4-48.2,5.1c-55.3,5.6-105.1-5.5-147.2-44.6C64.3,55.6,45.7,43.1,27.8,29.2C88.8,4.6,150.3-15.2,216.1,16.1
	c35.8,17,60.7,44,76.9,79.5c5.5,12,14.5,19.5,25.8,26c11-19,21.3-37.4,32.3-55.2c2.2-3.6,7.9-7.6,11.5-7.2c4.2,0.5,9.6,4.8,11.3,8.8
	c1.2,2.8-1.9,9.3-5,11.7c-29.1,22.5-38.2,54.4-44.8,91.7c10.6-3,18.9-4.8,26.6-7.8c31.6-12.1,64-18.9,97.8-21.9
	c54.5-4.9,95,17.2,125.3,60.5c30.9,44.1,41.4,94.7,41.5,147.3c0.2,105.8-31.9,200.5-100.8,281.7c-7.8,9.1-16.5,17.4-24.9,26.1
	c-31.1,32.1-68.5,43.5-112.2,34.1c-9.3-2-18.9-3-28.1-5.1c-21.4-4.8-42.3-3.5-63.9,0.8c-23.4,4.6-47.6,6.4-71.4,6.9
	c-22.7,0.5-42.5-10.2-60.8-22.7c-55.4-38.1-93-90.6-118.8-151.6C0,438.4-10.8,354.2,12.1,268c19.7-74.2,71.6-115.3,148.1-122.9
	c36.8-3.6,71.8,1.9,106.2,14.2C279.6,164.1,293,167.9,307.9,172.7z"/>
</svg>
