<svg id="Layer_1" data-name="Layer 1" xmlns="http://www.w3.org/2000/svg" viewBox="0 0 2648.3 694.57"><defs><style>.cls-1{fill:#7289da;}.cls-2{fill:#fff;}</style></defs><rect class="cls-1" x="728.3" y="524.28" width="470" height="161"/><path class="cls-1" d="M1677.64,453.18c82-25.76,132.66-96.36,132.66-221.35-3.86-158.38-111.67-222.31-251-222.31h-270V685H1462V470.36h30.53L1649,685h212.76ZM1562.19,323.43H1462V168.86h100.18C1670,168.86,1670,323.43,1562.19,323.43Z" transform="translate(0 0)"/><rect class="cls-1" x="1905.67" y="9.53" width="170.79" height="675.5"/><path class="cls-1" d="M2648,492.3c-5.73,130.7-143.12,202.27-267.15,202.27-81.1,0-167-41-229.94-122.12l107.81-101.13c67.74,82.05,216.58,85.87,221.35,13.36,1.91-38.17-60.11-60.11-115.45-67.74-108.77-17.17-208-85.87-208-214.67C2156.58,69.65,2276.8,0,2400.83,0c82,0,161.24,22.9,230.89,107.81l-111.63,85.87c-70.6-75.37-191.77-72.51-194.64,5.72,1.91,32.44,37.21,51.52,89.69,63C2535.37,284.31,2655.59,326.29,2648,492.3Z" transform="translate(0 0)"/><polygon class="cls-1" points="900.99 169.82 900.99 274.77 1174.82 274.77 1174.82 422.65 900.99 422.65 728.3 265.5 728.3 9.53 1198.67 9.53 1198.67 169.82 900.99 169.82"/><path class="cls-1" d="M307.91,172.68c3.23-15,5.93-27.07,8.33-39.19.35-1.76-.07-4.77-1.24-5.56-12-8.09-21.5-20.77-39.13-17.69-15.87,2.78-32.11,3.43-48.18,5.05-55.26,5.59-105.14-5.47-147.17-44.63C64.32,55.57,45.67,43.12,27.76,29.17,88.83,4.61,150.34-15.19,216.12,16.1c35.81,17,60.68,44,76.94,79.47,5.49,12,14.47,19.55,25.78,26,11-19.05,21.26-37.37,32.31-55.19,2.24-3.61,7.86-7.62,11.47-7.24,4.22.46,9.62,4.82,11.3,8.84,1.18,2.8-1.89,9.31-5,11.7-29.06,22.54-38.2,54.44-44.81,91.66,10.59-3,18.85-4.77,26.64-7.75,31.57-12.05,64-18.9,97.82-21.93,54.49-4.87,95,17.16,125.34,60.48,30.9,44.14,41.44,94.68,41.52,147.34.15,105.77-31.92,200.5-100.83,281.74-7.76,9.14-16.54,17.43-24.9,26.06q-46.62,48.16-112.2,34.12c-9.32-2-18.85-3-28.14-5.07-21.43-4.82-42.3-3.51-63.94.76-23.39,4.61-47.56,6.39-71.44,6.91-22.67.49-42.52-10.15-60.84-22.73-55.43-38.06-93-90.57-118.81-151.58C0,438.38-10.77,354.18,12.1,268c19.7-74.21,71.56-115.3,148.15-122.89C197,141.49,232,147,266.47,159.35,279.59,164.05,293,167.91,307.91,172.68Z" transform="translate(0 0)"/><path class="cls-2" d="M76.83,364.93q19.13,1.5,38.27,2.76c-.28,4.31-.43,6.47-.71,10.78Q95.18,377.21,76,375.7C76.33,371.39,76.5,369.24,76.83,364.93ZM90,371.16l11.24.81-4,57.24-11.46-.83Q87.87,399.78,90,371.16Z" transform="translate(0 0)"/><path class="cls-2" d="M121,368.07c4.49.29,6.74.43,11.23.7q-1.86,31.23-3.73,62.47c-4.59-.27-6.88-.41-11.47-.71Q119.06,399.3,121,368.07Zm3.63,26.63q14.34.89,28.69,1.63L152.8,407q-14.4-.75-28.8-1.64Zm22.75-25.07c4.47.25,6.71.36,11.18.59q-1.58,31.26-3.17,62.51l-11.42-.6Q145.7,400.87,147.41,369.63Z" transform="translate(0 0)"/><path class="cls-2" d="M189.8,371.64l11.19.43q-1.12,31.26-2.27,62.54c-4.57-.16-6.85-.25-11.43-.44Q188.55,402.91,189.8,371.64Zm6.5,36.09q10-17.52,19.72-35.16c5.36.17,8,.25,13.4.39q-16.32,26.13-33,52Zm7.32-6c3.6-2.44,5.4-3.66,9-6.12q8.65,20,17.47,40c-5.24-.14-7.86-.21-13.11-.37Q210.22,418.51,203.62,401.75Z" transform="translate(0 0)"/><path class="cls-2" d="M251.34,373.46l7.49.14q9.15,31.47,18.63,62.84c-4.76-.05-7.13-.08-11.88-.15q-5.49-21-10.87-42-6.14,20.81-12.4,41.6l-11.83-.28Q241.07,404.58,251.34,373.46Zm-9.41,41.87c10,.22,15,.31,25,.45l-.15,10.67c-10.05-.14-15.07-.23-25.12-.45C241.78,421.73,241.83,419.6,241.93,415.33Z" transform="translate(0 0)"/><path class="cls-2" d="M299.93,374h7.49q9.68,31.32,19.66,62.53c-4.75,0-7.13,0-11.88.05q-5.83-20.9-11.56-41.83-5.79,20.91-11.71,41.8l-11.83-.09Q290.16,405.28,299.93,374Z" transform="translate(0 0)"/><path class="cls-2" d="M348.52,373.72l7.49-.11q10.19,31.14,20.69,62.19c-4.75.11-7.13.16-11.88.25q-6.18-20.81-12.24-41.64-5.46,21-11,42l-11.83.11Q339.28,405.16,348.52,373.72Z" transform="translate(0 0)"/><path class="cls-2" d="M393.77,435.36l-11.66.31q-.78-31.29-1.55-62.57c4.57-.11,6.85-.17,11.41-.3Z" transform="translate(0 0)"/><path class="cls-2" d="M431.44,382.34c-7.93.34-11.9.49-19.83.77,5.54,7.95,8.33,11.92,13.94,19.85-5,8.35-7.47,12.52-12.51,20.84,8-.28,12.06-.44,20.11-.77L433.6,434q-16.87.68-33.77,1.23c-.12-4.06-.18-6.1-.31-10.16,5.42-8.62,8.11-12.94,13.45-21.59-5.93-8.25-8.88-12.38-14.74-20.66-.13-4.06-.19-6.09-.31-10.15q16.53-.54,33.06-1.2C431.17,375.79,431.26,378,431.44,382.34Z" transform="translate(0 0)"/><path class="cls-2" d="M435.68,371.22q19.15-.84,38.3-1.92c.24,4.32.36,6.47.61,10.79q-19.21,1.08-38.45,1.92C436,377.7,435.86,375.54,435.68,371.22Zm13.8,4.58,11.26-.56q1.49,28.65,3,57.3c-4.59.24-6.89.35-11.48.57Z" transform="translate(0 0)"/><path class="cls-2" d="M479.92,369c4.49-.26,6.73-.4,11.22-.68l3.9,62.46c-4.58.29-6.88.43-11.46.7Zm6.83,26q14.36-.85,28.69-1.87c.29,4.24.44,6.36.74,10.61q-14.38,1-28.79,1.88C487.14,401.31,487,399.19,486.75,394.94Zm19.53-27.64,11.18-.78q2.24,31.22,4.46,62.43l-11.41.79Z" transform="translate(0 0)"/><path class="cls-2" d="M543.52,427.32c-4.65.37-7,.55-11.63.9q-2.34-31.22-4.67-62.42c4.56-.34,6.84-.51,11.39-.87Q541.07,396.13,543.52,427.32Z" transform="translate(0 0)"/></svg>