<?xml version="1.0" encoding="utf-8"?>
<!-- Generator: Adobe Illustrator 25.2.1, SVG Export Plug-In . SVG Version: 6.00 Build 0)  -->
<svg version="1.1" id="Layer_1" xmlns="http://www.w3.org/2000/svg" xmlns:xlink="http://www.w3.org/1999/xlink" x="0px" y="0px"
	 viewBox="0 0 1920 1080" style="enable-background:new 0 0 1920 1080;" xml:space="preserve">
<style type="text/css">
	.st0{fill:#7289DA;}
</style>
<path class="st0" d="M1081.96,385.2c-3.82-158.38-111.63-222.31-250.93-222.31H561.02v675.5h172.69V623.73h30.53L920.71,838.4
	h212.76L949.34,606.55C1031.39,580.79,1081.96,510.19,1081.96,385.2z M833.89,476.8H733.71V322.23h100.18
	C941.7,322.23,941.7,476.8,833.89,476.8z M1177.37,162.9h170.79v675.5h-170.79V162.9z M1919.65,645.67
	c-5.73,130.71-143.12,202.27-267.15,202.27c-81.1,0-166.97-41.03-229.94-122.12l107.81-101.13
	c67.74,82.05,216.58,85.87,221.35,13.36c1.91-38.17-60.11-60.11-115.45-67.74c-108.77-17.17-207.99-85.87-207.99-214.67
	c0-132.62,120.22-202.27,244.25-202.27c82.05,0,161.24,22.9,230.89,107.81l-111.63,85.87c-70.6-75.37-191.77-72.51-194.64,5.72
	c1.91,32.44,37.21,51.52,89.69,62.97C1807.07,437.68,1927.29,479.66,1919.65,645.67z M470.37,677.16V838.4H0l1.49-160.71
	L470.37,677.16z M172.69,323.19v104.95h273.83v147.89H172.69L0,418.87V162.9h470.37v160.29H172.69z"/>
</svg>
